<svg height="496pt" viewBox="0 0 496 496" width="496pt" xmlns="http://www.w3.org/2000/svg"><path d="m8 104h480v384h-480zm0 0" fill="#b8cbd9"/><path d="m8 370.9375c48.375 47.636719 114.742188 77.0625 188 77.0625 148.015625 0 268-119.984375 268-268 0-26.40625-3.878906-51.894531-11-76h-445zm0 0" fill="#e8eff4"/><path d="m8 8h480v96h-480zm0 0" fill="#e4725f"/><path d="m440 400h-208c-8.839844 0-16-7.160156-16-16s7.160156-16 16-16h208c8.839844 0 16 7.160156 16 16s-7.160156 16-16 16zm0 0" fill="#568e53"/><path d="m440 224h-208c-8.839844 0-16-7.160156-16-16s7.160156-16 16-16h208c8.839844 0 16 7.160156 16 16s-7.160156 16-16 16zm0 0" fill="#568e53"/><path d="m312 384c0 17.671875-14.328125 32-32 32s-32-14.328125-32-32 14.328125-32 32-32 32 14.328125 32 32zm0 0" fill="#a8b0bc"/><path d="m424 208c0 17.671875-14.328125 32-32 32s-32-14.328125-32-32 14.328125-32 32-32 32 14.328125 32 32zm0 0" fill="#a8b0bc"/><path d="m184 384c0 39.765625-32.234375 72-72 72s-72-32.234375-72-72 32.234375-72 72-72 72 32.234375 72 72zm0 0" fill="#4472b2"/><path d="m184 208c0 39.765625-32.234375 72-72 72s-72-32.234375-72-72 32.234375-72 72-72 72 32.234375 72 72zm0 0" fill="#fff"/><path d="m88 176v64l64-32zm0 0" fill="#e4725f"/><g fill="#f0d365"><path d="m72 56c0 8.835938-7.164062 16-16 16s-16-7.164062-16-16 7.164062-16 16-16 16 7.164062 16 16zm0 0"/><path d="m136 56c0 8.835938-7.164062 16-16 16s-16-7.164062-16-16 7.164062-16 16-16 16 7.164062 16 16zm0 0"/><path d="m200 56c0 8.835938-7.164062 16-16 16s-16-7.164062-16-16 7.164062-16 16-16 16 7.164062 16 16zm0 0"/></g><path d="m488 496h-480c-4.414062 0-8-3.585938-8-8v-480c0-4.414062 3.585938-8 8-8h480c4.414062 0 8 3.585938 8 8v480c0 4.414062-3.585938 8-8 8zm-472-16h464v-464h-464zm0 0"/><path d="m56 80c-13.230469 0-24-10.769531-24-24s10.769531-24 24-24 24 10.769531 24 24-10.769531 24-24 24zm0-32c-4.40625 0-8 3.59375-8 8s3.59375 8 8 8 8-3.59375 8-8-3.59375-8-8-8zm0 0"/><path d="m120 80c-13.230469 0-24-10.769531-24-24s10.769531-24 24-24 24 10.769531 24 24-10.769531 24-24 24zm0-32c-4.40625 0-8 3.59375-8 8s3.59375 8 8 8 8-3.59375 8-8-3.59375-8-8-8zm0 0"/><path d="m184 80c-13.230469 0-24-10.769531-24-24s10.769531-24 24-24 24 10.769531 24 24-10.769531 24-24 24zm0-32c-4.40625 0-8 3.59375-8 8s3.59375 8 8 8 8-3.59375 8-8-3.59375-8-8-8zm0 0"/><path d="m8 96h480v16h-480zm0 0"/><path d="m112 288c-44.113281 0-80-35.886719-80-80s35.886719-80 80-80 80 35.886719 80 80-35.886719 80-80 80zm0-144c-35.289062 0-64 28.710938-64 64s28.710938 64 64 64 64-28.710938 64-64-28.710938-64-64-64zm0 0"/><path d="m112 464c-44.113281 0-80-35.886719-80-80s35.886719-80 80-80 80 35.886719 80 80-35.886719 80-80 80zm0-144c-35.289062 0-64 28.710938-64 64s28.710938 64 64 64 64-28.710938 64-64-28.710938-64-64-64zm0 0"/><path d="m88 248c-1.464844 0-2.921875-.398438-4.207031-1.191406-2.351563-1.464844-3.792969-4.03125-3.792969-6.808594v-64c0-2.777344 1.441406-5.34375 3.792969-6.808594 2.359375-1.457031 5.304687-1.582031 7.78125-.351562l64 32c2.714843 1.359375 4.425781 4.128906 4.425781 7.160156s-1.710938 5.800781-4.425781 7.160156l-64 32c-1.125.558594-2.351563.839844-3.574219.839844zm8-59.054688v38.109376l38.113281-19.054688zm0 0"/><path d="m112 424h-16v-56c0-13.230469 10.769531-24 24-24h24v16h-24c-4.40625 0-8 3.59375-8 8zm0 0"/><path d="m80 376h48v16h-48zm0 0"/><path d="m256 408h-24c-13.230469 0-24-10.769531-24-24s10.769531-24 24-24h24v16h-24c-4.40625 0-8 3.59375-8 8s3.59375 8 8 8h24zm0 0"/><path d="m440 408h-136v-16h136c4.40625 0 8-3.59375 8-8s-3.59375-8-8-8h-136v-16h136c13.230469 0 24 10.769531 24 24s-10.769531 24-24 24zm0 0"/><path d="m280 424c-22.054688 0-40-17.945312-40-40s17.945312-40 40-40 40 17.945312 40 40-17.945312 40-40 40zm0-64c-13.230469 0-24 10.769531-24 24s10.769531 24 24 24 24-10.769531 24-24-10.769531-24-24-24zm0 0"/><path d="m440 232h-24v-16h24c4.40625 0 8-3.59375 8-8s-3.59375-8-8-8h-24v-16h24c13.230469 0 24 10.769531 24 24s-10.769531 24-24 24zm0 0"/><path d="m368 232h-136c-13.230469 0-24-10.769531-24-24s10.769531-24 24-24h136v16h-136c-4.40625 0-8 3.59375-8 8s3.59375 8 8 8h136zm0 0"/><path d="m392 248c-22.054688 0-40-17.945312-40-40s17.945312-40 40-40 40 17.945312 40 40-17.945312 40-40 40zm0-64c-13.230469 0-24 10.769531-24 24s10.769531 24 24 24 24-10.769531 24-24-10.769531-24-24-24zm0 0"/></svg>