<?xml version="1.0" encoding="UTF-8" standalone="no"?>
<svg
   xmlns:dc="http://purl.org/dc/elements/1.1/"
   xmlns:cc="http://creativecommons.org/ns#"
   xmlns:rdf="http://www.w3.org/1999/02/22-rdf-syntax-ns#"
   xmlns:svg="http://www.w3.org/2000/svg"
   xmlns="http://www.w3.org/2000/svg"
   viewBox="0 0 999.99998 666.66669"
   height="666.66669"
   width="1000"
   xml:space="preserve"
   id="svg2"
   version="1.1"><metadata
     id="metadata8"><rdf:RDF><cc:Work
         rdf:about=""><dc:format>image/svg+xml</dc:format><dc:type
           rdf:resource="http://purl.org/dc/dcmitype/StillImage" /><dc:title></dc:title></cc:Work></rdf:RDF></metadata><defs
     id="defs6"><clipPath
       id="clipPath24"
       clipPathUnits="userSpaceOnUse"><path
         id="path22"
         d="M 12804.7,0 H 5304.67 v 5000 h 7500.03 z" /></clipPath><clipPath
       id="clipPath198"
       clipPathUnits="userSpaceOnUse"><path
         id="path196"
         d="M 5000,0 H 0 v 5000 h 5000 z" /></clipPath></defs><g
     transform="matrix(1.3333333,0,0,-1.3333333,0,666.66667)"
     id="g10"><g
       transform="scale(0.1)"
       id="g12"><path
         id="path14"
         style="fill:#ece8e1;fill-opacity:1;fill-rule:nonzero;stroke:none"
         d="M 7500.0151,3.3618165e-5 H -0.01490625 V 5000 H 7500.0151 V 3.3618165e-5" /><path
         id="path16"
         style="fill:#ece8e1;fill-opacity:1;fill-rule:nonzero;stroke:none"
         d="M 7500.0151,3.3618165e-5 H -0.01490625 V 5000 H 7500.0151 V 3.3618165e-5" /><g
         transform="translate(-5304.6849,3.3618165e-5)"
         id="g18"><g
           clip-path="url(#clipPath24)"
           id="g20"><path
             id="path26"
             style="fill:#8b181d;fill-opacity:1;fill-rule:nonzero;stroke:none"
             d="m 12815.8,1593.97 v -573.01 l -495.9,286.45 v 0.25 l 495.9,286.31" /><path
             id="path28"
             style="fill:#8b181d;fill-opacity:1;fill-rule:nonzero;stroke:none"
             d="m 12815.8,1020.96 v -0.43 l -495.3,-285.889 -0.6,0.371 v 572.398 l 495.9,-286.45" /><path
             id="path30"
             style="fill:#8b181d;fill-opacity:1;fill-rule:nonzero;stroke:none"
             d="M 12319.9,1306.79 V 735.012 l -0.5,-0.25 -495.1,285.948 495.6,286.08" /><path
             id="path32"
             style="fill:#ef2e29;fill-opacity:1;fill-rule:nonzero;stroke:none"
             d="m 12319.9,1307.66 v -0.87 l -495.6,-286.08 -0.4,0.25 v 573.01 l 496,-286.31" /><path
             id="path34"
             style="fill:#16b1b2;fill-opacity:1;fill-rule:nonzero;stroke:none"
             d="m 12319.9,2452.95 v -573.02 l -496,286.45 v 0.25 l 496,286.32" /><path
             id="path36"
             style="fill:#0f2832;fill-opacity:1;fill-rule:nonzero;stroke:none"
             d="m 12319.9,1879.93 v -0.43 l -495.3,-285.89 -0.7,0.36 v 572.41 l 496,-286.45" /><path
             id="path38"
             style="fill:#0f2832;fill-opacity:1;fill-rule:nonzero;stroke:none"
             d="m 12319.9,1879.5 v -571.84 l -495.3,285.95 z" /><path
             id="path40"
             style="fill:#0b8a97;fill-opacity:1;fill-rule:nonzero;stroke:none"
             d="m 12815.4,1593.73 -495.5,-286.07 v 571.84 l 0.3,0.19 495.2,-285.96" /><path
             id="path42"
             style="fill:#0b8a97;fill-opacity:1;fill-rule:nonzero;stroke:none"
             d="m 12815.8,2165.76 v -571.79 l -0.4,-0.24 -495.2,285.96 495.6,286.07" /><path
             id="path44"
             style="fill:#0b8a97;fill-opacity:1;fill-rule:nonzero;stroke:none"
             d="m 12640,3342.8 v -166.03 l -0.1,-0.07 -143.8,83.03 143.9,83.07" /><path
             id="path46"
             style="fill:#16b1b2;fill-opacity:1;fill-rule:nonzero;stroke:none"
             d="m 12815.8,2739.9 v -0.87 l -495.6,-286.08 -0.3,0.25 v 573.02 l 495.9,-286.32" /><path
             id="path48"
             style="fill:#8b181d;fill-opacity:1;fill-rule:nonzero;stroke:none"
             d="M 12319.9,735.012 V 161.98 l -496,286.461 v 0.239 l 496,286.332" /><path
             id="path50"
             style="fill:#8b181d;fill-opacity:1;fill-rule:nonzero;stroke:none"
             d="m 12319.9,161.98 v -0.429 l -495.3,-285.891 -0.7,0.379 v 572.402 l 496,-286.461" /><path
             id="path52"
             style="fill:#01a8ab;fill-opacity:1;fill-rule:nonzero;stroke:none"
             d="m 12319.9,161.551 v -571.84 l -495.3,285.949 z" /><path
             id="path54"
             style="fill:#01a8ab;fill-opacity:1;fill-rule:nonzero;stroke:none"
             d="m 12815.4,-124.219 -495.5,-286.07 v 571.84 l 0.3,0.191 495.2,-285.961" /><path
             id="path56"
             style="fill:#0f2832;fill-opacity:1;fill-rule:nonzero;stroke:none"
             d="m 12815.8,447.809 v -571.77 l -0.4,-0.258 -495.2,285.961 495.6,286.067" /><path
             id="path58"
             style="fill:#0f2832;fill-opacity:1;fill-rule:nonzero;stroke:none"
             d="m 12815.8,448.68 v -0.871 l -495.6,-286.067 -0.3,0.238 v 573.032 l 495.9,-286.332" /><path
             id="path60"
             style="fill:#ef2e29;fill-opacity:1;fill-rule:nonzero;stroke:none"
             d="m 12815.8,1593.97 v -573.01 l -495.9,286.45 v 0.25 l 495.9,286.31" /><path
             id="path62"
             style="fill:#ef2e29;fill-opacity:1;fill-rule:nonzero;stroke:none"
             d="m 12815.8,1020.96 v -0.43 l -495.3,-285.889 -0.6,0.371 v 572.398 l 495.9,-286.45" /><path
             id="path64"
             style="fill:#01a8ab;fill-opacity:1;fill-rule:nonzero;stroke:none"
             d="M 12815.8,1020.53 V 448.68 l -495.3,285.961 z" /><path
             id="path66"
             style="fill:#ef2e29;fill-opacity:1;fill-rule:nonzero;stroke:none"
             d="M 12319.4,734.762 11823.9,448.68 v 571.85 l 0.4,0.18 495.1,-285.948" /><path
             id="path68"
             style="fill:#ef2e29;fill-opacity:1;fill-rule:nonzero;stroke:none"
             d="M 12319.9,1306.79 V 735.012 l -0.5,-0.25 -495.1,285.948 495.6,286.08" /><path
             id="path70"
             style="fill:#ef2e29;fill-opacity:1;fill-rule:nonzero;stroke:none"
             d="m 11823.9,1593.97 v -573.01 l -495.9,286.45 v 0.25 l 495.9,286.31" /><path
             id="path72"
             style="fill:#f2531b;fill-opacity:1;fill-rule:nonzero;stroke:none"
             d="m 11823.9,1020.96 v -0.43 l -495.3,-285.889 -0.6,0.371 v 572.398 l 495.9,-286.45" /><path
             id="path74"
             style="fill:#f7972a;fill-opacity:1;fill-rule:nonzero;stroke:none"
             d="m 12319.9,1307.66 v -0.87 l -495.6,-286.08 -0.4,0.25 v 573.01 l 496,-286.31" /><path
             id="path76"
             style="fill:#fbcb86;fill-opacity:1;fill-rule:nonzero;stroke:none"
             d="m 11328,2452.95 v -573.02 l -496,286.45 v 0.25 l 496,286.32" /><path
             id="path78"
             style="fill:#f46b34;fill-opacity:1;fill-rule:nonzero;stroke:none"
             d="M 11823.5,1593.73 11328,1307.66 v 571.84 l 0.3,0.19 495.2,-285.96" /><path
             id="path80"
             style="fill:#f46b34;fill-opacity:1;fill-rule:nonzero;stroke:none"
             d="m 10990,1593.7 -231.4,-133.6 v 267.06 l 0.2,0.09 231.2,-133.55" /><path
             id="path82"
             style="fill:#fbcb86;fill-opacity:1;fill-rule:nonzero;stroke:none"
             d="m 10985.8,2408.78 -158,-91.27 v 182.43 l 0.1,0.06 157.9,-91.22" /><path
             id="path84"
             style="fill:#f46b34;fill-opacity:1;fill-rule:nonzero;stroke:none"
             d="m 11823.9,2165.76 v -571.79 l -0.4,-0.24 -495.2,285.96 495.6,286.07" /><path
             id="path86"
             style="fill:#f7972a;fill-opacity:1;fill-rule:nonzero;stroke:none"
             d="m 11823.9,2166.63 v -0.87 l -495.6,-286.07 -0.3,0.24 v 573.02 l 495.9,-286.32" /><path
             id="path88"
             style="fill:#f36246;fill-opacity:1;fill-rule:nonzero;stroke:none"
             d="M 11328,735.012 V 161.98 l -496,286.461 v 0.239 l 496,286.332" /><path
             id="path90"
             style="fill:#ef3239;fill-opacity:1;fill-rule:nonzero;stroke:none"
             d="m 11823.5,-124.219 -495.5,-286.07 v 571.84 l 0.3,0.191 495.2,-285.961" /><path
             id="path92"
             style="fill:#ef3239;fill-opacity:1;fill-rule:nonzero;stroke:none"
             d="m 10832,-124.219 -495.4,-286.07 v 571.84 l 0.3,0.191 495.1,-285.961" /><path
             id="path94"
             style="fill:#ef3239;fill-opacity:1;fill-rule:nonzero;stroke:none"
             d="m 11823.9,447.809 v -571.77 l -0.4,-0.258 -495.2,285.961 495.6,286.067" /><path
             id="path96"
             style="fill:#ef3239;fill-opacity:1;fill-rule:nonzero;stroke:none"
             d="m 11823.9,448.68 v -0.871 l -495.6,-286.067 -0.3,0.238 v 573.032 l 495.9,-286.332" /><path
             id="path98"
             style="fill:#f7972a;fill-opacity:1;fill-rule:nonzero;stroke:none"
             d="m 11823.9,1593.97 v -573.01 l -495.9,286.45 v 0.25 l 495.9,286.31" /><path
             id="path100"
             style="fill:#f7972a;fill-opacity:1;fill-rule:nonzero;stroke:none"
             d="m 11823.9,1020.96 v -0.43 l -495.3,-285.889 -0.6,0.371 v 572.398 l 495.9,-286.45" /><path
             id="path102"
             style="fill:#f2531b;fill-opacity:1;fill-rule:nonzero;stroke:none"
             d="M 11823.9,1020.53 V 448.68 l -495.3,285.961 z" /><path
             id="path104"
             style="fill:#8b181d;fill-opacity:1;fill-rule:nonzero;stroke:none"
             d="M 12319.4,734.762 11823.9,448.68 v 571.85 l 0.4,0.18 495.1,-285.948" /><path
             id="path106"
             style="fill:#f7972a;fill-opacity:1;fill-rule:nonzero;stroke:none"
             d="m 12319.9,1307.66 v -0.87 l -495.6,-286.08 -0.4,0.25 v 573.01 l 496,-286.31" /><path
             id="path108"
             style="fill:#8b181d;fill-opacity:1;fill-rule:nonzero;stroke:none"
             d="m 4808.75,4157.99 v 573.02 l 495.92,-286.45 v -0.24 l -495.92,-286.33" /><path
             id="path110"
             style="fill:#8b181d;fill-opacity:1;fill-rule:nonzero;stroke:none"
             d="m 4808.75,4731.01 v 0.44 l 495.3,285.89 0.62,-0.38 v -572.4 l -495.92,286.45" /><path
             id="path112"
             style="fill:#8b181d;fill-opacity:1;fill-rule:nonzero;stroke:none"
             d="m 5304.67,4445.18 v 571.78 l 0.5,0.25 495.11,-285.95 -495.61,-286.08" /><path
             id="path114"
             style="fill:#ef2e29;fill-opacity:1;fill-rule:nonzero;stroke:none"
             d="m 5304.67,4444.32 v 0.86 l 495.61,286.08 0.37,-0.25 v -573.02 l -495.98,286.33" /><path
             id="path116"
             style="fill:#16b1b2;fill-opacity:1;fill-rule:nonzero;stroke:none"
             d="m 5304.71,3299.01 v 573.03 l 495.91,-286.45 v -0.25 l -495.91,-286.33" /><path
             id="path118"
             style="fill:#0f2832;fill-opacity:1;fill-rule:nonzero;stroke:none"
             d="m 5304.71,3872.04 v 0.43 l 495.3,285.89 0.61,-0.37 v -572.4 l -495.91,286.45" /><path
             id="path120"
             style="fill:#0f2832;fill-opacity:1;fill-rule:nonzero;stroke:none"
             d="m 5469.2,3252 v 0.14 l 166.72,96.23 0.2,-0.12 V 3155.58 L 5469.2,3252" /><path
             id="path122"
             style="fill:#0f2832;fill-opacity:1;fill-rule:nonzero;stroke:none"
             d="m 5304.71,3872.47 v 571.85 l 495.3,-285.96 z" /><path
             id="path124"
             style="fill:#0b8a97;fill-opacity:1;fill-rule:nonzero;stroke:none"
             d="m 4809.22,4158.24 495.49,286.08 v -571.85 l -0.37,-0.18 -495.12,285.95" /><path
             id="path126"
             style="fill:#16b1b2;fill-opacity:1;fill-rule:nonzero;stroke:none"
             d="m 4808.72,3012.07 v 0.87 l 495.62,286.07 0.37,-0.24 v -573.02 l -495.99,286.32" /><path
             id="path128"
             style="fill:#ef2e29;fill-opacity:1;fill-rule:nonzero;stroke:none"
             d="m 4808.75,4157.99 v 573.02 l 495.92,-286.45 v -0.24 l -495.92,-286.33" /><path
             id="path130"
             style="fill:#ef2e29;fill-opacity:1;fill-rule:nonzero;stroke:none"
             d="m 4808.75,4731.01 v 0.44 l 495.3,285.89 0.62,-0.38 v -572.4 l -495.92,286.45" /><path
             id="path132"
             style="fill:#ef2e29;fill-opacity:1;fill-rule:nonzero;stroke:none"
             d="m 5305.17,5017.21 495.48,286.08 v -571.84 l -0.37,-0.19 -495.11,285.95" /><path
             id="path134"
             style="fill:#ef2e29;fill-opacity:1;fill-rule:nonzero;stroke:none"
             d="m 5304.67,4445.18 v 571.78 l 0.5,0.25 495.11,-285.95 -495.61,-286.08" /><path
             id="path136"
             style="fill:#ef2e29;fill-opacity:1;fill-rule:nonzero;stroke:none"
             d="m 5800.65,4157.99 v 573.02 l 495.92,-286.45 v -0.24 l -495.92,-286.33" /><path
             id="path138"
             style="fill:#f2531b;fill-opacity:1;fill-rule:nonzero;stroke:none"
             d="m 5800.65,4731.01 v 0.44 l 495.31,285.89 0.61,-0.38 v -572.4 l -495.92,286.45" /><path
             id="path140"
             style="fill:#f7972a;fill-opacity:1;fill-rule:nonzero;stroke:none"
             d="m 5304.67,4444.32 v 0.86 l 495.61,286.08 0.37,-0.25 v -573.02 l -495.98,286.33" /><path
             id="path142"
             style="fill:#f7972a;fill-opacity:1;fill-rule:nonzero;stroke:none"
             d="m 6296.57,4445.18 v 571.78 l 0.5,0.25 495.12,-285.95 -495.62,-286.08" /><path
             id="path144"
             style="fill:#fbcb86;fill-opacity:1;fill-rule:nonzero;stroke:none"
             d="m 6938.76,4615.06 v 232.17 l 0.2,0.1 201.04,-116.11 -201.24,-116.16" /><path
             id="path146"
             style="fill:#fbcb86;fill-opacity:1;fill-rule:nonzero;stroke:none"
             d="m 6296.61,3299.01 v 573.03 l 495.92,-286.45 v -0.25 l -495.92,-286.33" /><path
             id="path148"
             style="fill:#f46b34;fill-opacity:1;fill-rule:nonzero;stroke:none"
             d="m 5801.12,4158.24 495.49,286.08 v -571.85 l -0.37,-0.18 -495.12,285.95" /><path
             id="path150"
             style="fill:#f46b34;fill-opacity:1;fill-rule:nonzero;stroke:none"
             d="m 5800.62,3586.21 v 571.78 l 0.5,0.25 495.12,-285.95 -495.62,-286.08" /><path
             id="path152"
             style="fill:#f7972a;fill-opacity:1;fill-rule:nonzero;stroke:none"
             d="m 5800.62,3585.34 v 0.87 l 495.62,286.08 0.37,-0.25 v -573.03 l -495.99,286.33" /><path
             id="path154"
             style="fill:#f7972a;fill-opacity:1;fill-rule:nonzero;stroke:none"
             d="m 5800.65,4157.99 v 573.02 l 495.92,-286.45 v -0.24 l -495.92,-286.33" /><path
             id="path156"
             style="fill:#f7972a;fill-opacity:1;fill-rule:nonzero;stroke:none"
             d="m 5800.65,4731.01 v 0.44 l 495.31,285.89 0.61,-0.38 v -572.4 l -495.92,286.45" /><path
             id="path158"
             style="fill:#f2531b;fill-opacity:1;fill-rule:nonzero;stroke:none"
             d="m 5800.65,4731.45 v 571.84 l 495.31,-285.95 z" /><path
             id="path160"
             style="fill:#8b181d;fill-opacity:1;fill-rule:nonzero;stroke:none"
             d="m 5305.17,5017.21 495.48,286.08 v -571.84 l -0.37,-0.19 -495.11,285.95" /><path
             id="path162"
             style="fill:#f7972a;fill-opacity:1;fill-rule:nonzero;stroke:none"
             d="m 5304.67,4444.32 v 0.86 l 495.61,286.08 0.37,-0.25 v -573.02 l -495.98,286.33" /></g></g><g
         transform="matrix(10,0,0,10,-6045.5225,-404.19192)"
         id="g164"><text
           y="-266.67572"
           x="633.72192"
           id="text170"
           style="font-variant:normal;font-weight:800;font-size:67.83850098px;font-family:Montserrat;-inkscape-font-specification:Montserrat-ExtraBold;writing-mode:lr-tb;fill:#100f0d;fill-opacity:1;fill-rule:nonzero;stroke:none"
           transform="scale(1,-1)"><tspan
             id="tspan168"
             y="-266.67572"
             x="633.72192">NEODENWER</tspan></text>
</g></g></g></svg>